<svg width="64" height="64" viewBox="0 0 64 64" fill="none" xmlns="http://www.w3.org/2000/svg">
<g clip-path="url(#clip0_588_1076)">
<path d="M12.557 42.4146L25.1462 35.3778L25.357 34.7645L25.1462 34.4255H24.5308L22.4242 34.2965L15.2305 34.1028L8.9925 33.8445L2.94875 33.5218L1.42575 33.1988L0 31.3266L0.14575 30.3905L1.42575 29.5354L3.25675 29.6967L7.30725 29.9709L13.3833 30.3905L17.7905 30.6488L24.32 31.3266H25.357L25.5028 30.907L25.1462 30.6488L24.871 30.3905L18.5842 26.1459L11.7793 21.6591L8.21475 19.0767L6.2865 17.7693L5.3145 16.5429L4.89325 13.8638L6.64325 11.9431L8.9925 12.1047L9.592 12.2661L11.9738 14.0897L17.0613 18.0119L23.7043 22.8856L24.6765 23.6925L25.0653 23.418L25.114 23.2245L24.6765 22.4981L21.0632 15.994L17.207 9.37687L15.4895 6.63309L15.036 4.98702C14.874 4.30892 14.7605 3.74412 14.7605 3.05009L16.7535 0.354864L17.855 0L20.5125 0.355113L21.6305 1.32333L23.283 5.08389L25.9565 11.0073L30.1042 19.0608L31.3195 21.4495L31.9675 23.6606L32.2108 24.3384H32.632V23.9509L32.972 19.4159L33.604 13.8477L34.2197 6.68165L34.4305 4.66453L35.435 2.24349L37.4277 0.936093L38.9832 1.67844L40.2632 3.50232L40.085 4.68022L39.3235 9.60299L37.833 17.3179L36.8607 22.4824H37.4277L38.076 21.8367L40.7007 18.3668L45.1077 12.8792L47.0522 10.7005L49.3205 8.2956L50.7788 7.14982H53.5332L55.5583 10.1518L54.6512 13.2505L51.8158 16.8335L49.4663 19.8676L46.0962 24.3867L43.9897 28.0021L44.1842 28.2925L44.6867 28.2442L52.3018 26.6302L56.4173 25.8876L61.3265 25.0484L63.5465 26.0814L63.7892 27.1305L62.9142 29.2771L57.6647 30.5681L51.5078 31.7948L42.3372 33.9576L42.2238 34.0383L42.3535 34.1997L46.485 34.5869L48.2513 34.6838H52.5773L60.6297 35.2809L62.7363 36.669L64 38.3636L63.7892 39.6546L60.5488 41.3009L56.1743 40.268L45.9668 37.8472L42.4668 36.9756H41.9808V37.2662L44.8973 40.1066L50.244 44.9163L56.9357 51.1138L57.2757 52.6471L56.4173 53.8574L55.5098 53.7284L49.6283 49.3223L47.36 47.3371L42.2238 43.0279H41.8838V43.4797L43.0662 45.2067L49.3205 54.5676L49.6445 57.4404L49.191 58.3767L47.5708 58.9415L45.7882 58.6185L42.1265 53.5025L38.3515 47.7405L35.3052 42.5759L34.9328 42.7859L33.1343 62.0725L32.2918 63.0569L30.3472 63.7993L28.7272 62.5728L27.8682 60.5876L28.727 56.6657L29.764 51.5496L30.6065 47.4823L31.368 42.4308L31.8218 40.7523L31.7892 40.6393L31.4167 40.6876L27.593 45.9169L21.7763 53.7446L17.1747 58.6509L16.073 59.0867L14.161 58.102L14.3392 56.3429L15.4085 54.7775L21.776 46.7078L25.616 41.7043L28.0952 38.8156L28.079 38.3958H27.9333L11.0175 49.3385L8.00375 49.7258L6.7075 48.5155L6.8695 46.5302L7.48525 45.8845L12.5728 42.3984L12.557 42.4146Z" fill="#D97757"/>
</g>
<defs>
<clipPath id="clip0_588_1076">
<rect width="64" height="64" fill="white"/>
</clipPath>
</defs>
</svg>
