<svg width="61" height="64" viewBox="0 0 61 64" fill="none" xmlns="http://www.w3.org/2000/svg">
<path d="M60.7204 36.1499L56.8862 28.4294V23.9832C56.8862 16.6131 50.988 10.6442 43.7137 10.6442H37.161C37.6351 9.66738 37.8957 8.56926 37.8957 7.41053C37.8957 3.31453 34.6093 0 30.548 0C26.4867 0 23.2003 3.31453 23.2003 7.41053C23.2003 8.56926 23.4608 9.66738 23.9351 10.6442H17.3824C10.1081 10.6442 4.20989 16.6131 4.20989 23.9832V28.4294L0.295577 36.1298C-0.0985257 36.9045 -0.0985257 37.8274 0.295577 38.6021L4.20989 46.2147V50.6611C4.20989 58.0312 10.1081 64 17.3824 64H43.7137C50.988 64 56.8862 58.0312 56.8862 50.6611V46.2147L60.7137 38.5752C61.0943 37.8139 61.0943 36.9179 60.7204 36.1499ZM26.5402 42.4421C26.5402 45.7902 23.8483 48.5053 20.5285 48.5053C17.2086 48.5053 14.5167 45.7902 14.5167 42.4421V31.6632C14.5167 28.3149 17.2086 25.6 20.5285 25.6C23.8483 25.6 26.5402 28.3149 26.5402 31.6632V42.4421ZM45.9114 42.4421C45.9114 45.7902 43.2195 48.5053 39.8996 48.5053C36.5798 48.5053 33.8879 45.7902 33.8879 42.4421V31.6632C33.8879 28.3149 36.5798 25.6 39.8996 25.6C43.2195 25.6 45.9114 28.3149 45.9114 31.6632V42.4421Z" fill="#381282"/>
</svg>
