<svg width="64" height="64" viewBox="0 0 64 64" fill="none" xmlns="http://www.w3.org/2000/svg">
<g clip-path="url(#clip0_952_384)">
<path fill-rule="evenodd" clip-rule="evenodd" d="M41.8347 6.24802C40.5462 4.99406 38.8193 4.29242 37.0213 4.29242C35.2234 4.29242 33.4965 4.99406 32.208 6.24802L6.53867 31.4214C6.10911 31.8389 5.53369 32.0724 4.93467 32.0724C4.33564 32.0724 3.76022 31.8389 3.33067 31.4214C3.12036 31.2168 2.9532 30.9722 2.83905 30.702C2.7249 30.4318 2.66609 30.1414 2.66609 29.848C2.66609 29.5547 2.7249 29.2643 2.83905 28.9941C2.9532 28.7238 3.12036 28.4792 3.33067 28.2747L29 3.10136C31.1472 1.01174 34.0252 -0.157471 37.0213 -0.157471C40.0175 -0.157471 42.8954 1.01174 45.0427 3.10136C46.2851 4.30963 47.2238 5.79495 47.7818 7.43573C48.3399 9.07651 48.5014 10.8261 48.2533 12.5414C49.9913 12.2942 51.7629 12.4493 53.4315 12.9949C55.1 13.5404 56.6211 14.4618 57.8773 15.688L58.0107 15.8214C59.0622 16.844 59.898 18.067 60.4687 19.4182C61.0395 20.7694 61.3335 22.2213 61.3335 23.688C61.3335 25.1548 61.0395 26.6067 60.4687 27.9579C59.898 29.309 59.0622 30.5321 58.0107 31.5547L34.7947 54.32C34.7246 54.3881 34.6689 54.4696 34.6309 54.5596C34.5928 54.6496 34.5732 54.7463 34.5732 54.844C34.5732 54.9417 34.5928 55.0385 34.6309 55.1285C34.6689 55.2185 34.7246 55.2999 34.7947 55.368L39.5627 60.0454C39.773 60.2499 39.9401 60.4945 40.0543 60.7647C40.1684 61.035 40.2272 61.3253 40.2272 61.6187C40.2272 61.912 40.1684 62.2024 40.0543 62.4727C39.9401 62.7429 39.773 62.9875 39.5627 63.192C39.1331 63.6095 38.5577 63.8431 37.9587 63.8431C37.3596 63.8431 36.7842 63.6095 36.3547 63.192L31.5867 58.5174C31.0956 58.0402 30.7052 57.4693 30.4386 56.8386C30.172 56.2079 30.0347 55.5301 30.0347 54.8454C30.0347 54.1606 30.172 53.4828 30.4386 52.8521C30.7052 52.2214 31.0956 51.6505 31.5867 51.1734L54.8027 28.4054C55.4332 27.7916 55.9344 27.0577 56.2767 26.247C56.6189 25.4364 56.7952 24.5653 56.7952 23.6854C56.7952 22.8054 56.6189 21.9344 56.2767 21.1237C55.9344 20.313 55.4332 19.5791 54.8027 18.9654L54.6693 18.8347C53.3823 17.582 51.6576 16.8805 49.8616 16.879C48.0656 16.8775 46.3398 17.5762 45.0507 18.8267L25.9253 37.584L25.92 37.5894L25.6587 37.848C25.229 38.2663 24.653 38.5004 24.0533 38.5004C23.4537 38.5004 22.8777 38.2663 22.448 37.848C22.2377 37.6435 22.0705 37.3989 21.9564 37.1287C21.8422 36.8584 21.7834 36.568 21.7834 36.2747C21.7834 35.9813 21.8422 35.691 21.9564 35.4207C22.0705 35.1505 22.2377 34.9059 22.448 34.7014L41.8427 15.68C42.4715 15.0659 42.971 14.332 43.3119 13.5218C43.6527 12.7116 43.8279 11.8413 43.8271 10.9623C43.8264 10.0833 43.6497 9.21339 43.3075 8.40374C42.9653 7.59409 42.4645 6.86112 41.8347 6.24802Z" fill="white"/>
<path fill-rule="evenodd" clip-rule="evenodd" d="M38.6267 12.5412C38.837 12.3367 39.0041 12.0921 39.1183 11.8219C39.2324 11.5516 39.2912 11.2613 39.2912 10.9679C39.2912 10.6745 39.2324 10.3842 39.1183 10.1139C39.0041 9.8437 38.837 9.59909 38.6267 9.39457C38.197 8.97626 37.621 8.74219 37.0213 8.74219C36.4217 8.74219 35.8457 8.97626 35.416 9.39457L16.432 28.0132C15.3805 29.0359 14.5447 30.2589 13.9739 31.6101C13.4032 32.9612 13.1091 34.4131 13.1091 35.8799C13.1091 37.3467 13.4032 38.7986 13.9739 40.1497C14.5447 41.5009 15.3805 42.724 16.432 43.7466C18.5796 45.8356 21.4574 47.0043 24.4533 47.0043C27.4493 47.0043 30.3271 45.8356 32.4747 43.7466L51.4613 25.1279C51.6716 24.9234 51.8388 24.6788 51.9529 24.4085C52.0671 24.1383 52.1259 23.8479 52.1259 23.5546C52.1259 23.2612 52.0671 22.9708 51.9529 22.7006C51.8388 22.4304 51.6716 22.1858 51.4613 21.9812C51.0317 21.5629 50.4557 21.3289 49.856 21.3289C49.2563 21.3289 48.6803 21.5629 48.2507 21.9812L29.2667 40.5999C27.9782 41.8539 26.2513 42.5555 24.4533 42.5555C22.6554 42.5555 20.9285 41.8539 19.64 40.5999C19.0094 39.9861 18.5082 39.2523 18.166 38.4416C17.8238 37.6309 17.6474 36.7599 17.6474 35.8799C17.6474 34.9999 17.8238 34.1289 18.166 33.3182C18.5082 32.5075 19.0094 31.7737 19.64 31.1599L38.6267 12.5412Z" fill="white"/>
</g>
<defs>
<clipPath id="clip0_952_384">
<rect width="64" height="64" fill="white"/>
</clipPath>
</defs>
</svg>
