<svg width="64" height="64" viewBox="0 0 64 64" fill="none" xmlns="http://www.w3.org/2000/svg">
<g clip-path="url(#clip0_588_1063)">
<mask id="mask0_588_1063" style="mask-type:alpha" maskUnits="userSpaceOnUse" x="0" y="0" width="64" height="64">
<path fill-rule="evenodd" clip-rule="evenodd" d="M45.3837 63.5628C45.8928 63.7614 46.4374 63.8531 46.9835 63.8322C47.5297 63.8113 48.0656 63.6782 48.5581 63.4412L61.7351 57.1007C62.4137 56.774 62.9863 56.2623 63.387 55.6246C63.7877 54.9868 64.0002 54.2488 64 53.4956V10.5043C64 9.7511 63.7874 9.01323 63.3866 8.37557C62.9858 7.7379 62.4131 7.22636 61.7344 6.89978L48.5594 0.559304C47.8148 0.201039 46.9772 0.083116 46.1627 0.221858C45.3481 0.3606 44.5968 0.749145 44.0128 1.3337L18.7872 24.3455L7.79969 16.0063C7.30409 15.63 6.69234 15.439 6.07063 15.4666C5.44892 15.4942 4.85649 15.7386 4.39617 16.1574L0.872335 19.3631C0.597791 19.613 0.378405 19.9173 0.228206 20.2567C0.0780072 20.5962 0.000302548 20.9632 6.15972e-05 21.3344C-0.000179354 21.7056 0.0770487 22.0728 0.226807 22.4124C0.376565 22.752 0.595556 23.0567 0.869775 23.3068L10.3981 31.9999L0.870415 40.6931C0.596196 40.9432 0.377205 41.2479 0.227447 41.5875C0.0776887 41.9271 0.000460646 42.2943 0.000701597 42.6655C0.000942548 43.0367 0.0786472 43.4037 0.228846 43.7431C0.379045 44.0826 0.598431 44.3869 0.872975 44.6367L4.39681 47.8431C4.85713 48.2619 5.44956 48.5063 6.07127 48.5339C6.69298 48.5615 7.30473 48.3706 7.80033 47.9942L18.7879 39.6537L44.0128 62.6668C44.4029 63.0574 44.8693 63.3625 45.3837 63.5628ZM48.0096 17.4719L28.8704 31.9999L48.0103 46.5286L48.0096 17.4719Z" fill="white"/>
</mask>
<g mask="url(#mask0_588_1063)">
<path d="M61.7351 6.90979L48.5485 0.560993C47.8038 0.202427 46.9661 0.084159 46.1512 0.22255C45.3363 0.360941 44.5846 0.749151 44 1.33347L0.831389 40.6935C0.557083 40.9436 0.338012 41.2482 0.188198 41.5878C0.0383832 41.9275 -0.0388757 42.2947 -0.0386347 42.6659C-0.0383937 43.0371 0.0393418 43.4042 0.189597 43.7436C0.339852 44.0831 0.559318 44.3874 0.833949 44.6372L4.36035 47.8429C4.82105 48.2615 5.41364 48.5057 6.03547 48.5333C6.6573 48.5609 7.2692 48.3701 7.76515 47.994L59.7511 8.55715C61.4951 7.23427 64 8.47779 64 10.6672V10.5136C63.9999 9.76075 63.7872 9.02321 63.3865 8.3858C62.9859 7.74839 62.4134 7.237 61.7351 6.91043V6.90979Z" fill="#0065A9"/>
<g filter="url(#filter0_d_588_1063)">
<path d="M61.735 57.0907L48.5485 63.4395C47.8038 63.7982 46.966 63.9165 46.1511 63.7781C45.3362 63.6397 44.5845 63.2514 44 62.667L0.831328 23.307C0.557022 23.0569 0.337951 22.7523 0.188137 22.4126C0.0383222 22.073 -0.0389367 21.7058 -0.0386957 21.3346C-0.0384548 20.9634 0.0392808 20.5963 0.189536 20.2569C0.339791 19.9174 0.559257 19.6131 0.833888 19.3633L4.36029 16.1576C4.82099 15.739 5.41358 15.4948 6.03541 15.4672C6.65724 15.4396 7.26913 15.6304 7.76509 16.0065L59.751 55.4433C61.495 56.7662 64 55.5227 64 53.3333V53.4869C63.9998 54.2397 63.7872 54.9773 63.3865 55.6147C62.9858 56.2521 62.4134 56.7641 61.735 57.0907Z" fill="#007ACC"/>
</g>
<g filter="url(#filter1_d_588_1063)">
<path d="M48.5491 63.4408C47.804 63.799 46.9661 63.917 46.1511 63.7783C45.3362 63.6395 44.5844 63.251 43.9999 62.6664C45.4758 64.1428 47.9999 63.0977 47.9999 61.01V2.99021C47.9999 0.902525 45.4758 -0.142595 43.9999 1.33325C44.5844 0.748635 45.3362 0.360095 46.1511 0.221362C46.9661 0.0826296 47.804 0.200561 48.5491 0.558846L61.7331 6.89997C62.412 7.22636 62.9849 7.73783 63.386 8.3755C63.787 9.01318 63.9998 9.75114 63.9999 10.5044V53.4958C64 54.2491 63.7873 54.9872 63.3864 55.625C62.9855 56.2628 62.4126 56.7744 61.7337 57.1009L48.5491 63.4408Z" fill="#1F9CF0"/>
</g>
<path style="mix-blend-mode:overlay" opacity="0.25" fill-rule="evenodd" clip-rule="evenodd" d="M45.3446 63.5631C45.8538 63.7616 46.3984 63.8533 46.9445 63.8324C47.4906 63.8115 48.0266 63.6784 48.519 63.4415L61.696 57.101C62.3748 56.7744 62.9475 56.2627 63.3483 55.6249C63.7492 54.9871 63.9617 54.2491 63.9616 53.4959V10.5045C63.9616 9.75134 63.749 9.01348 63.3482 8.37581C62.9474 7.73815 62.3747 7.2266 61.696 6.90003L48.5197 0.559548C47.7751 0.201284 46.9375 0.0833602 46.123 0.222102C45.3084 0.360845 44.5571 0.749389 43.9731 1.33395L18.7482 24.3458L7.76063 16.0066C7.26508 15.6304 6.65346 15.4395 6.03189 15.4671C5.41033 15.4947 4.81803 15.739 4.35775 16.1576L0.833272 19.3634C0.558729 19.6132 0.339342 19.9176 0.189143 20.257C0.0389447 20.5964 -0.03876 20.9635 -0.0390009 21.3347C-0.0392419 21.7058 0.0379862 22.073 0.187744 22.4126C0.337502 22.7523 0.556493 23.0569 0.830712 23.3071L10.359 32.0002L0.830712 40.6933C0.556493 40.9435 0.337502 41.2481 0.187744 41.5877C0.0379862 41.9274 -0.0392419 42.2945 -0.0390009 42.6657C-0.03876 43.0369 0.0389447 43.4039 0.189143 43.7434C0.339342 44.0828 0.558729 44.3872 0.833272 44.637L4.35775 47.8427C4.81803 48.2614 5.41033 48.5057 6.03189 48.5333C6.65346 48.5609 7.26508 48.37 7.76063 47.9938L18.7482 39.6546L43.9731 62.6677C44.3632 63.0583 44.8303 63.3628 45.3446 63.5631ZM47.9706 17.4722L28.8307 32.0002L47.9706 46.5288V17.4722Z" fill="url(#paint0_linear_588_1063)"/>
</g>
</g>
<defs>
<filter id="filter0_d_588_1063" x="-6.37254" y="9.13076" width="76.7064" height="61.0376" filterUnits="userSpaceOnUse" color-interpolation-filters="sRGB">
<feFlood flood-opacity="0" result="BackgroundImageFix"/>
<feColorMatrix in="SourceAlpha" type="matrix" values="0 0 0 0 0 0 0 0 0 0 0 0 0 0 0 0 0 0 127 0" result="hardAlpha"/>
<feOffset/>
<feGaussianBlur stdDeviation="3.16692"/>
<feColorMatrix type="matrix" values="0 0 0 0 0 0 0 0 0 0 0 0 0 0 0 0 0 0 0.25 0"/>
<feBlend mode="overlay" in2="BackgroundImageFix" result="effect1_dropShadow_588_1063"/>
<feBlend mode="normal" in="SourceGraphic" in2="effect1_dropShadow_588_1063" result="shape"/>
</filter>
<filter id="filter1_d_588_1063" x="37.6661" y="-6.16904" width="32.6677" height="76.3376" filterUnits="userSpaceOnUse" color-interpolation-filters="sRGB">
<feFlood flood-opacity="0" result="BackgroundImageFix"/>
<feColorMatrix in="SourceAlpha" type="matrix" values="0 0 0 0 0 0 0 0 0 0 0 0 0 0 0 0 0 0 127 0" result="hardAlpha"/>
<feOffset/>
<feGaussianBlur stdDeviation="3.16692"/>
<feColorMatrix type="matrix" values="0 0 0 0 0 0 0 0 0 0 0 0 0 0 0 0 0 0 0.25 0"/>
<feBlend mode="overlay" in2="BackgroundImageFix" result="effect1_dropShadow_588_1063"/>
<feBlend mode="normal" in="SourceGraphic" in2="effect1_dropShadow_588_1063" result="shape"/>
</filter>
<linearGradient id="paint0_linear_588_1063" x1="31.961" y1="0.165308" x2="31.961" y2="63.8351" gradientUnits="userSpaceOnUse">
<stop stop-color="white"/>
<stop offset="1" stop-color="white" stop-opacity="0"/>
</linearGradient>
<clipPath id="clip0_588_1063">
<rect width="64" height="64" fill="white"/>
</clipPath>
</defs>
</svg>
